<?xml version="1.0" standalone="no"?>
<!DOCTYPE svg PUBLIC "-//W3C//DTD SVG 20010904//EN"
 "http://www.w3.org/TR/2001/REC-SVG-20010904/DTD/svg10.dtd">
<svg version="1.0" xmlns="http://www.w3.org/2000/svg"
 width="1600.000000pt" height="1600.000000pt" viewBox="0 0 1600.000000 1600.000000"
 preserveAspectRatio="xMidYMid meet">

<g transform="translate(0.000000,1600.000000) scale(0.100000,-0.100000)"
 stroke="none">
<path fill="#7b522d" d="M7815 13973 c-232 -29 -408 -74 -578 -148 -378 -166 -641 -438 -744
-772 -25 -81 -27 -101 -28 -265 l0 -177 -31 -15 c-54 -25 -101 -74 -124 -128
-20 -46 -22 -64 -17 -144 6 -105 30 -167 83 -214 34 -29 34 -30 23 -76 -16
-64 -5 -191 22 -249 27 -57 85 -108 147 -127 l47 -15 3 -1457 2 -1456 170 0
170 0 0 361 0 361 -104 -95 c-57 -53 -106 -94 -110 -90 -3 3 -6 218 -6 477 l0
471 110 110 110 110 0 469 0 468 -104 -96 c-57 -53 -107 -96 -110 -96 -3 0 -6
105 -6 234 l0 234 83 6 c127 10 461 25 465 22 1 -2 -36 -38 -83 -81 l-85 -77
0 -460 0 -459 27 21 c15 12 64 56 108 98 154 146 459 419 867 774 l226 198
289 -10 c158 -6 360 -15 448 -20 88 -5 163 -10 168 -10 4 0 7 -26 7 -57 l0
-58 -182 -180 c-248 -244 -609 -576 -929 -855 -91 -80 -264 -231 -385 -337
-120 -105 -313 -274 -429 -375 l-210 -184 -3 -437 -2 -437 31 0 c24 0 46 15
108 73 212 199 424 387 1186 1052 226 197 453 398 505 445 52 48 140 128 195
179 55 50 103 91 107 91 5 0 8 -215 8 -477 l0 -478 -158 -155 c-238 -234 -365
-354 -669 -629 -57 -51 -103 -95 -103 -97 0 -2 236 -4 525 -4 l525 0 2 1456 3
1457 45 13 c60 17 122 72 150 130 27 58 39 202 21 257 -12 35 -11 37 22 67 54
47 78 109 84 214 5 80 3 98 -17 144 -12 29 -39 66 -58 84 -70 61 -92 65 -407
82 -159 9 -310 17 -335 19 -45 2 39 9 360 27 190 11 240 20 272 52 19 19 20
29 15 127 -29 559 -586 1026 -1322 1111 -85 9 -334 12 -400 3z m24 -97 c-2 -3
-48 -34 -102 -70 -331 -221 -561 -507 -665 -826 -25 -77 -52 -225 -52 -286 0
-28 -5 -44 -12 -45 -7 0 -107 -6 -222 -12 l-208 -12 -11 25 c-19 46 -12 266
11 351 112 415 516 740 1057 848 118 24 213 36 204 27z m-310 -1352 c58 -23
74 -61 70 -163 -4 -78 -6 -84 -36 -111 -36 -32 -32 -32 -498 -50 -154 -6 -338
-16 -409 -21 -115 -8 -132 -8 -165 8 -49 24 -71 71 -71 151 0 74 18 115 60
137 32 17 330 38 745 54 121 4 230 9 242 9 13 1 40 -5 62 -14z m739 -4 c41
-25 52 -54 52 -141 0 -81 -17 -122 -60 -144 -42 -22 -308 -21 -355 1 -52 24
-68 65 -64 163 4 79 6 84 37 112 l32 29 163 0 c144 0 166 -2 195 -20z m-346
-441 c55 -14 78 -49 78 -121 0 -72 -11 -95 -55 -114 -46 -19 -168 -18 -205 1
-91 47 -70 223 29 238 46 7 115 5 153 -4z m-497 -15 c84 -40 85 -189 2 -227
-23 -11 -94 -16 -262 -21 -126 -4 -299 -11 -384 -16 -172 -10 -201 -4 -239 45
-27 35 -30 119 -6 154 30 42 67 49 339 61 143 6 289 12 325 13 169 8 193 7
225 -9z"/>
<path fill="#7b522d" d="M6183 11438 c-5 -7 -18 -33 -27 -58 -22 -56 -60 -123 -98 -172 l-29
-37 -82 1 c-107 2 -168 -23 -236 -97 -61 -68 -76 -117 -68 -228 7 -94 1 -109
-58 -160 -242 -205 -693 -547 -721 -547 -7 0 -304 149 -499 250 -331 172 -864
440 -874 440 -25 0 -6 -18 77 -72 48 -31 247 -162 442 -290 195 -129 426 -280
513 -337 86 -57 157 -106 157 -110 0 -3 -15 -16 -33 -28 -31 -20 -287 -189
-877 -577 -321 -212 -295 -194 -287 -203 7 -7 227 103 1139 571 125 64 233
116 240 116 44 0 760 -558 778 -606 5 -13 6 -61 3 -108 -7 -104 10 -158 71
-224 54 -59 107 -84 189 -90 205 -15 322 162 242 363 -25 61 -25 66 -10 95 30
59 -11 100 -61 61 -31 -25 -46 -26 -99 -6 -55 20 -112 18 -182 -4 -32 -10 -71
-17 -85 -14 -29 6 -502 411 -505 433 -1 8 -5 50 -8 93 l-7 78 -44 22 c-24 11
-44 24 -44 27 0 3 20 16 44 27 l44 22 7 78 c3 43 8 87 11 98 3 11 37 47 76 80
39 33 145 124 236 202 90 78 177 145 192 148 16 3 54 -3 94 -16 60 -20 74 -21
128 -11 205 38 305 263 191 432 -12 19 -23 42 -23 51 0 24 91 156 139 204 48
46 51 66 15 94 -30 24 -57 27 -71 9z m-168 -336 c69 -33 105 -93 105 -172 0
-62 -21 -114 -63 -158 -62 -65 -143 -92 -218 -72 -92 25 -149 97 -149 190 0
168 179 284 325 212z m-1109 -1057 c15 -23 15 -27 0 -50 -11 -17 -26 -25 -44
-25 -35 0 -52 16 -52 50 0 34 17 50 52 50 18 0 33 -8 44 -25z m1055 -710 c62
-22 101 -55 133 -115 24 -45 28 -60 24 -115 -8 -122 -88 -191 -213 -183 -76 5
-131 37 -180 107 -27 39 -30 50 -30 121 0 72 2 81 31 117 58 73 147 99 235 68z"/>
<path fill="#7b522d" d="M10010 11441 c-78 -25 -148 -90 -170 -156 -18 -53 -8 -160 20 -216
22 -45 22 -47 5 -84 -13 -27 -16 -42 -8 -54 14 -23 51 -26 73 -6 14 13 29 16
57 11 114 -18 171 -18 223 -1 30 10 64 15 82 11 42 -8 487 -390 500 -429 4
-12 11 -56 15 -97 l8 -75 44 -24 c48 -26 48 -27 -17 -63 -29 -16 -31 -20 -37
-106 l-7 -91 -235 -203 c-157 -136 -246 -206 -269 -212 -26 -7 -46 -6 -82 7
-137 49 -290 -13 -356 -145 -45 -91 -35 -185 31 -289 16 -26 16 -29 -3 -70
-20 -45 -63 -104 -128 -173 -42 -46 -44 -58 -14 -86 30 -28 78 -27 86 3 9 34
90 189 117 222 24 29 27 30 117 30 76 0 101 4 135 23 65 34 110 78 138 137 24
49 26 62 23 158 -3 93 -1 107 17 127 11 12 85 74 165 138 79 64 196 159 258
209 62 51 164 127 227 168 l114 76 93 -49 c51 -27 273 -141 493 -252 220 -111
486 -247 592 -302 105 -54 194 -94 197 -89 4 5 -101 80 -231 166 -131 86 -401
264 -600 396 -200 131 -363 241 -363 244 0 3 105 75 233 159 127 84 313 206
412 271 99 65 265 174 368 242 103 68 185 128 182 134 -4 5 -73 -25 -168 -74
-89 -47 -333 -171 -542 -277 -209 -106 -445 -226 -524 -267 l-143 -75 -117 79
c-131 89 -618 478 -650 519 -20 25 -21 35 -15 114 11 143 -34 233 -146 294
-56 30 -151 43 -200 27z m185 -76 c139 -81 157 -280 33 -362 -36 -25 -51 -28
-119 -28 -70 0 -81 3 -120 30 -86 61 -124 149 -105 248 9 46 71 114 121 133
56 20 135 12 190 -21z m977 -1032 c41 -37 3 -105 -50 -87 -21 7 -28 17 -30 44
-5 53 41 78 80 43z m-967 -732 c62 -28 99 -88 103 -170 3 -60 0 -71 -30 -121
-76 -125 -232 -157 -334 -67 -116 101 -65 308 88 364 49 17 128 15 173 -6z"/>
<path fill="#c27d3d" d="M13310 9635 c-378 -64 -669 -275 -746 -540 -20 -71 -22 -202 -3 -263
18 -61 71 -119 122 -134 30 -8 57 -28 95 -70 44 -47 64 -61 109 -74 63 -18
121 -14 159 11 62 40 84 133 42 173 -44 40 -101 37 -135 -7 -19 -25 -15 -85 7
-113 24 -31 18 -39 -22 -27 -75 21 -130 120 -148 262 -11 87 -9 115 12 212 50
228 259 429 515 492 97 24 344 24 433 0 311 -83 480 -338 480 -722 0 -274
-107 -510 -271 -600 -42 -22 -70 -30 -131 -33 -101 -6 -153 13 -207 75 -80 90
-61 221 35 239 47 9 80 -8 101 -51 14 -30 15 -41 4 -70 -16 -44 -9 -55 37 -55
80 0 136 67 134 160 -2 88 -35 137 -117 176 -73 35 -137 32 -237 -11 -17 -7
-18 6 -18 186 0 107 5 211 11 232 11 42 69 113 100 122 10 4 19 15 19 26 0 19
-8 19 -282 17 -209 -2 -283 -6 -283 -15 0 -6 20 -26 43 -43 27 -20 51 -48 63
-75 19 -43 20 -73 17 -1192 l-3 -1148 -27 -99 c-46 -165 -116 -266 -186 -266
-22 0 -24 3 -18 35 8 39 -13 88 -43 105 -51 27 -116 -6 -126 -64 -8 -42 22
-106 61 -126 38 -21 120 -18 174 7 56 25 140 100 176 157 20 32 38 47 65 55
20 6 51 27 68 46 28 33 61 116 61 157 0 16 6 17 54 12 75 -9 120 2 156 37 43
43 41 78 -7 104 -47 26 -73 62 -84 116 -9 51 -12 1139 -3 1139 4 0 21 -9 38
-19 207 -127 613 2 810 257 118 155 165 337 137 536 -51 362 -363 618 -823
676 -109 13 -324 11 -418 -5z"/>
<path fill="#c27d3d" d="M2335 9590 c-235 -62 -422 -227 -503 -442 -82 -218 11 -484 190 -544
74 -24 181 -16 242 20 l46 27 0 -288 0 -288 -65 -23 c-280 -98 -460 -355 -481
-691 -21 -315 129 -593 401 -746 l85 -47 -22 -37 c-31 -53 -59 -81 -100 -102
-60 -31 -68 -27 -61 30 5 44 3 52 -20 75 -55 55 -147 18 -147 -59 0 -45 21
-87 54 -109 40 -26 127 -21 192 11 49 24 146 113 170 155 8 15 15 16 54 6 25
-6 110 -11 190 -11 302 0 532 87 729 277 162 157 262 370 292 627 49 427 -137
842 -443 988 -46 21 -100 42 -121 46 l-38 6 58 43 c155 114 233 273 233 474 0
204 -74 351 -238 475 -135 101 -294 147 -504 146 -86 0 -144 -6 -193 -19z
m367 -107 c89 -42 155 -109 201 -203 64 -133 83 -301 51 -458 -28 -138 -82
-232 -162 -283 -38 -24 -57 -29 -110 -29 l-63 0 3 293 c3 331 4 333 84 390 79
56 74 57 -241 57 -275 0 -285 -1 -285 -19 0 -11 9 -23 20 -26 34 -11 80 -68
95 -119 24 -80 21 -91 -22 -91 -37 0 -38 -1 -44 -46 -14 -97 -63 -149 -138
-149 -88 0 -138 57 -148 169 -18 204 129 421 341 504 94 37 149 46 251 44 89
-2 108 -6 167 -34z m44 -1074 c93 -13 129 -25 192 -66 80 -53 148 -136 203
-248 84 -172 114 -336 107 -579 -10 -311 -99 -540 -274 -706 -83 -79 -192
-138 -292 -159 -60 -12 -225 -15 -220 -3 13 29 38 101 42 123 5 25 7 26 83 25
87 -1 122 14 149 65 21 43 18 52 -31 78 -31 17 -50 36 -65 65 -19 40 -20 61
-20 439 l0 396 53 -18 c145 -50 248 -143 271 -245 13 -55 -27 -106 -83 -106
-27 0 -72 -39 -87 -76 -17 -41 -9 -84 22 -118 29 -31 62 -41 111 -33 45 8 66
27 94 85 31 63 33 218 6 303 -18 52 -18 59 -3 87 25 48 21 112 -10 158 -61 92
-208 181 -330 200 l-44 6 0 189 0 190 28 -21 c17 -13 56 -25 98 -31z m-446
-1589 c-7 -63 -16 -119 -20 -124 -23 -23 -169 82 -234 168 -106 140 -155 380
-116 573 35 170 152 312 317 378 l58 24 3 -452 c2 -285 -1 -495 -8 -567z"/>
<path fill="#c27d3d" d="M4141 8518 c-5 -18 -30 -107 -55 -198 -352 -1295 -353 -1295 -434
-1355 -22 -16 -41 -33 -41 -37 -1 -5 82 -8 184 -8 146 0 185 3 185 13 0 7 -16
21 -35 30 -41 20 -75 70 -75 111 0 26 27 135 97 396 14 52 27 98 29 102 12 20
126 -44 199 -111 204 -188 273 -426 144 -499 -66 -38 -42 -42 236 -42 226 0
265 2 265 15 0 8 -9 19 -21 25 -29 16 -76 69 -98 111 -11 19 -53 165 -95 325
-175 675 -296 1143 -296 1148 0 3 -40 6 -89 6 l-89 0 -11 -32z m94 -683 c42
-176 79 -329 82 -340 4 -13 -15 0 -54 35 -46 43 -177 122 -240 145 -2 1 113
446 123 474 2 8 6 12 9 10 2 -3 38 -148 80 -324z"/>
<path fill="#c27d3d" d="M9780 8535 c-171 -48 -269 -189 -258 -373 8 -131 74 -246 268 -467
212 -242 282 -379 266 -527 -6 -65 -23 -103 -58 -134 -94 -87 -231 -67 -331
47 -42 48 -97 158 -97 194 0 8 -9 15 -20 15 -19 0 -20 -7 -20 -160 l0 -160 38
-19 c60 -30 180 -53 282 -54 209 0 366 89 443 251 30 64 32 73 31 182 0 100
-3 124 -27 183 -44 112 -129 231 -266 372 -132 135 -185 202 -214 270 -61 142
-29 276 73 305 86 25 185 -44 269 -187 62 -107 69 -100 70 65 1 102 -2 142
-11 150 -7 5 -42 20 -78 32 -86 30 -278 37 -360 15z"/>
<path fill="#c27d3d" d="M12148 8526 c-147 -52 -261 -166 -348 -348 -64 -134 -89 -240 -97
-404 -24 -524 301 -946 668 -869 39 8 90 24 114 36 111 56 220 173 290 314
210 424 85 1027 -255 1232 -109 66 -254 81 -372 39z m213 -89 c255 -172 298
-1029 69 -1362 -33 -48 -102 -95 -140 -95 -37 0 -107 47 -139 94 -148 214
-195 689 -105 1045 52 207 146 341 239 341 27 0 54 -8 76 -23z"/>
<path fill="#c27d3d" d="M4910 8515 c0 -8 17 -26 38 -39 53 -33 79 -65 97 -115 13 -37 15
-130 15 -645 l0 -601 -25 -53 c-19 -40 -36 -60 -75 -84 -90 -56 -82 -58 235
-58 314 0 322 2 244 55 -22 16 -52 49 -67 74 l-27 46 -3 318 -3 317 50 0 c119
0 142 -45 176 -335 32 -284 64 -386 145 -458 90 -82 248 -88 361 -13 54 36 51
59 -10 75 -99 25 -141 103 -187 346 -22 116 -63 263 -85 308 -11 21 -36 55
-55 77 l-35 39 58 30 c168 84 250 236 222 411 -25 161 -125 266 -291 305 -93
22 -778 22 -778 0z m629 -110 c84 -42 133 -120 145 -230 13 -117 -36 -229
-126 -287 -44 -28 -61 -32 -134 -36 l-84 -5 0 292 0 291 75 0 c60 0 85 -5 124
-25z"/>
<path fill="#c27d3d" d="M6170 8512 c0 -11 14 -25 35 -35 46 -22 91 -87 105 -151 7 -36 10
-242 8 -637 l-3 -584 -25 -45 c-14 -24 -45 -59 -70 -78 -85 -64 -89 -64 272
-60 l323 3 69 28 c202 80 310 234 309 442 0 219 -114 394 -283 430 l-34 8 44
20 c60 29 111 82 146 153 26 52 29 70 29 149 -1 141 -48 248 -139 313 -78 56
-124 62 -473 62 -296 0 -313 -1 -313 -18z m575 -125 c39 -45 54 -91 62 -188
11 -139 -35 -282 -102 -321 -31 -18 -105 -32 -105 -20 -3 45 -6 573 -3 575 1
2 28 0 59 -3 50 -6 62 -11 89 -43z m-7 -647 c112 -48 181 -214 168 -403 -17
-223 -104 -334 -256 -325 l-55 3 0 365 c0 201 1 368 3 373 6 14 94 6 140 -13z"/>
<path fill="#c27d3d" d="M7250 8517 c0 -8 23 -29 51 -47 39 -25 57 -46 75 -84 l24 -51 0 -611
0 -610 -27 -53 c-19 -40 -39 -62 -75 -84 -92 -57 -94 -57 412 -57 l460 0 0
160 c0 121 -3 160 -12 160 -7 0 -30 -30 -50 -68 -40 -74 -78 -115 -121 -131
-16 -6 -91 -11 -168 -11 l-139 0 0 376 0 377 65 -6 c92 -9 138 -38 188 -119
10 -16 24 -28 32 -28 13 0 15 30 15 200 0 184 -1 200 -17 200 -10 0 -28 -17
-41 -40 -39 -69 -115 -110 -204 -110 l-38 0 0 270 0 270 118 0 c156 0 187 -14
257 -121 28 -41 56 -74 63 -71 9 3 12 44 12 153 l0 149 -440 0 c-360 0 -440
-2 -440 -13z"/>
<path fill="#c27d3d" d="M8264 8518 c-4 -7 0 -16 11 -22 10 -6 38 -28 61 -49 76 -69 75 -51
72 -744 l-3 -610 -30 -49 c-19 -31 -47 -58 -73 -72 -23 -13 -42 -30 -42 -38 0
-12 45 -14 285 -14 316 0 321 1 241 58 -27 20 -53 50 -68 79 -22 47 -23 56
-26 362 l-3 313 67 -4 c59 -4 69 -7 90 -33 30 -38 48 -119 73 -330 25 -203 42
-282 78 -347 67 -123 199 -175 340 -133 64 19 117 55 121 82 3 17 -5 23 -47
33 -99 23 -132 84 -187 343 -55 262 -84 339 -149 396 l-32 27 64 33 c91 48
153 108 193 187 32 62 34 74 34 158 -1 112 -26 184 -89 253 -54 61 -124 100
-212 118 -90 19 -758 22 -769 3z m622 -109 c116 -56 176 -206 140 -347 -36
-141 -127 -212 -272 -212 l-64 0 0 290 0 290 77 0 c57 0 88 -5 119 -21z"/>
<path fill="#c27d3d" d="M10420 8516 c0 -8 16 -24 35 -36 19 -12 48 -43 63 -68 l27 -47 0
-640 c0 -620 -1 -641 -20 -680 -11 -22 -39 -53 -62 -70 -75 -54 -70 -55 227
-55 166 0 270 4 270 10 0 5 -7 15 -16 22 -58 45 -93 88 -103 123 -7 26 -11
161 -11 373 l0 332 205 0 205 0 0 -322 c0 -186 -5 -342 -11 -368 -12 -53 -49
-104 -90 -125 -16 -9 -29 -22 -29 -30 0 -13 38 -15 265 -15 227 0 265 2 265
15 0 8 -13 21 -29 30 -35 17 -64 56 -80 106 -16 49 -17 1240 -1 1299 12 44 60
106 91 115 10 4 19 15 19 26 0 18 -10 19 -265 19 -228 0 -265 -2 -265 -15 0
-8 18 -26 41 -41 27 -17 48 -41 62 -72 20 -43 22 -66 25 -284 l4 -238 -206 0
-206 0 0 228 c0 135 5 243 11 267 11 38 62 97 103 121 12 6 16 15 12 22 -5 9
-78 12 -272 12 -221 0 -264 -2 -264 -14z"/>
<path fill="#c27d3d" d="M4727 6663 c-3 -5 -8 -28 -12 -53 -11 -65 -47 -130 -100 -179 -52
-48 -98 -70 -165 -80 l-45 -6 -3 -265 -2 -265 59 -12 c74 -14 141 -53 187
-108 36 -45 74 -136 74 -180 l0 -25 3280 0 3280 0 0 25 c0 38 29 116 62 163
41 59 122 111 197 125 l61 12 -2 265 -3 265 -45 6 c-136 20 -248 133 -266 272
l-7 47 -3273 0 c-1800 0 -3275 -3 -3277 -7z m1751 -310 c33 -20 62 -72 62
-110 0 -28 -4 -33 -22 -33 -13 0 -32 -3 -43 -6 -18 -4 -22 1 -30 38 -9 37 -14
43 -38 46 -37 4 -57 -13 -57 -51 0 -25 15 -45 86 -114 47 -46 92 -99 100 -118
20 -49 18 -124 -5 -161 -56 -92 -212 -81 -260 18 -30 63 -28 96 7 104 15 3 34
8 44 10 12 4 18 -5 23 -37 9 -52 38 -83 68 -73 29 9 37 22 37 64 0 30 -11 44
-94 125 -102 97 -114 122 -103 207 13 94 139 145 225 91z m413 -21 c23 -25 49
-106 37 -117 -1 -1 -22 -6 -44 -10 -40 -6 -41 -6 -48 26 -8 41 -23 59 -50 59
-31 0 -46 -19 -46 -57 0 -27 10 -42 57 -85 122 -113 143 -145 143 -220 0 -64
-28 -109 -82 -132 -108 -45 -218 23 -218 133 0 26 5 31 38 40 51 15 49 16 55
-27 11 -67 52 -97 90 -64 41 36 15 94 -78 176 -87 76 -105 107 -105 174 0 86
36 130 115 142 58 9 106 -5 136 -38z m2782 21 c34 -17 57 -67 64 -140 l6 -53
-57 0 -56 0 0 53 c0 61 -11 77 -57 77 -50 0 -55 -18 -51 -221 3 -165 5 -182
22 -195 49 -35 80 -11 86 68 l5 63 50 0 50 0 -2 -56 c-4 -120 -45 -164 -154
-164 -76 0 -110 17 -144 76 -18 31 -20 52 -20 214 0 199 9 237 60 271 51 34
139 37 198 7z m1160 0 c40 -20 84 -122 60 -136 -5 -2 -24 -7 -45 -11 -35 -6
-37 -5 -43 26 -10 45 -22 58 -56 58 -22 0 -32 -6 -39 -25 -15 -40 5 -73 87
-149 43 -40 84 -88 94 -111 54 -118 -21 -233 -144 -222 -77 7 -128 57 -140
139 -5 35 -4 37 26 43 18 4 40 9 50 11 13 4 17 -1 17 -21 0 -33 24 -81 45 -89
23 -8 54 10 60 37 10 39 -12 75 -104 165 -80 78 -90 92 -95 133 -19 134 102
215 227 152z m-5466 -17 c35 -32 37 -38 41 -105 l4 -71 -51 0 -51 0 0 55 c0
46 -4 57 -24 70 -27 18 -69 7 -80 -20 -3 -9 -6 -94 -6 -189 0 -187 7 -216 55
-216 35 0 55 36 55 97 l0 53 50 0 50 0 0 -57 c0 -120 -67 -184 -176 -169 -119
16 -144 66 -144 288 0 179 10 227 57 268 31 28 40 30 108 30 72 0 77 -2 112
-34z m261 -223 l2 -253 70 0 70 0 0 -35 0 -35 -125 0 -125 0 0 291 0 290 53
-3 52 -3 3 -252z m479 -3 c28 -140 54 -270 58 -287 l6 -33 -49 0 -50 0 -12 65
-12 65 -48 0 -48 0 -11 -50 c-6 -28 -11 -58 -11 -65 0 -11 -13 -15 -50 -15
-34 0 -50 4 -50 13 0 7 25 133 55 281 30 147 55 272 55 277 0 6 24 9 58 7 l57
-3 52 -255z m1043 -30 l0 -290 -55 0 -55 0 0 290 0 290 55 0 55 0 0 -290z
m374 269 c39 -31 56 -71 56 -134 l0 -55 -50 0 -50 0 0 48 c0 58 -17 85 -55 85
-50 0 -55 -19 -55 -215 0 -165 1 -179 20 -198 46 -46 90 -9 90 77 l0 53 50 0
50 0 0 -57 c-1 -87 -27 -136 -84 -158 -84 -32 -179 -4 -212 62 -16 31 -20 66
-22 193 -4 181 6 245 46 282 35 33 45 36 123 37 53 1 72 -3 93 -20z m486 -99
l0 -120 55 0 55 0 0 120 0 120 55 0 55 0 0 -290 0 -290 -55 0 -55 0 0 130 0
130 -55 0 -55 0 0 -130 0 -130 -55 0 -55 0 0 290 0 290 55 0 55 0 0 -120z
m540 118 c1 -2 27 -131 59 -288 l58 -285 -45 -3 c-53 -4 -59 3 -68 75 l-6 53
-53 0 -52 0 -9 -62 -9 -63 -53 -3 c-48 -3 -53 -1 -48 15 3 10 28 131 56 268
27 138 52 260 55 273 5 19 12 22 60 22 30 0 55 -1 55 -2z m320 -288 l0 -290
-55 0 -55 0 0 290 0 290 55 0 55 0 0 -290z m364 269 c43 -21 68 -61 74 -117 5
-61 -11 -115 -44 -141 l-25 -19 36 -125 c19 -69 38 -132 41 -141 5 -14 -3 -16
-50 -16 -52 0 -56 2 -62 28 -47 190 -60 227 -82 230 -22 3 -22 2 -22 -127 l0
-131 -55 0 -55 0 0 291 0 292 108 -5 c64 -3 119 -10 136 -19z m708 -214 c3
-225 4 -235 25 -256 27 -28 70 -19 83 17 6 14 10 126 10 250 l0 224 50 0 50 0
0 -237 c0 -207 -2 -242 -18 -272 -26 -52 -63 -74 -129 -78 -67 -5 -114 15
-147 60 -20 27 -21 44 -24 278 l-3 249 50 0 50 0 3 -235z m598 196 l0 -40 -47
-3 -48 -3 -3 -247 -2 -248 -50 0 -50 0 -2 248 -3 247 -47 3 -48 3 0 40 0 39
150 0 150 0 0 -39z m-5887 -202 c51 -63 -20 -153 -98 -123 -24 10 -46 60 -39
89 3 14 18 35 32 46 32 25 78 20 105 -12z m6800 11 c33 -26 41 -63 23 -99 -25
-48 -82 -56 -121 -16 -70 69 21 176 98 115z"/>
<path fill="#7b522d" d="M5978 6103 c-8 -54 -14 -101 -11 -105 2 -5 17 -8 34 -8 21 0 29 5 29
18 0 32 -23 177 -30 185 -3 4 -13 -37 -22 -90z"/>
<path fill="#7b522d" d="M8477 6109 c-9 -56 -14 -106 -11 -111 8 -13 64 -9 64 5 0 19 -30 201
-34 204 -2 2 -11 -42 -19 -98z"/>
<path fill="#7b522d" d="M9100 6204 l0 -87 37 6 c53 9 68 29 67 89 -1 59 -18 78 -71 78 l-33
0 0 -86z"/>
<path fill="#7b522d" d="M6620 4822 l0 -468 -53 -17 c-63 -20 -121 -72 -149 -135 -25 -55 -35
-195 -18 -246 12 -36 11 -38 -25 -73 -52 -51 -75 -108 -82 -206 -10 -138 39
-232 143 -279 l42 -18 -10 -42 c-16 -71 -3 -302 22 -388 52 -176 142 -324 289
-471 193 -192 443 -329 739 -405 291 -73 673 -73 964 0 300 77 548 213 743
410 193 195 295 401 313 636 10 114 1 147 -42 165 -43 18 -194 33 -430 41
-103 4 -182 10 -175 14 8 4 95 10 194 14 425 16 487 27 558 101 52 53 71 118
65 220 -7 98 -33 163 -84 210 -35 33 -36 34 -24 71 8 24 11 68 7 121 -9 143
-70 232 -182 263 l-45 13 0 468 0 469 -312 0 -313 0 -60 -58 c-65 -63 -425
-387 -545 -492 -41 -36 -77 -67 -80 -70 -3 -3 -52 -46 -110 -95 -58 -50 -150
-130 -205 -179 l-100 -88 -240 7 c-132 4 -337 12 -455 19 l-215 11 -3 55 -3
55 111 110 110 110 0 307 0 308 -170 0 -170 0 0 -468z m2638 -244 l-3 -233
-210 -12 c-115 -6 -239 -11 -275 -12 l-65 0 35 32 c20 17 98 88 175 157 76 69
181 164 233 213 53 48 99 87 104 87 5 0 7 -105 6 -232z m-2082 -398 c140 -5
240 -13 253 -20 33 -17 61 -70 61 -115 0 -45 -28 -98 -61 -116 -24 -12 -271
-8 -651 11 -239 12 -264 26 -256 141 4 60 23 92 63 110 19 9 110 7 591 -11z
m746 -20 c56 -16 78 -51 78 -124 -1 -98 -37 -126 -161 -126 -111 0 -159 39
-159 130 0 60 25 97 80 122 23 10 121 9 162 -2z m-1157 -350 c77 -5 277 -14
445 -21 329 -12 347 -16 375 -69 17 -33 21 -154 5 -194 -5 -14 -24 -35 -42
-47 -31 -19 -42 -20 -223 -14 -314 9 -777 36 -817 46 -21 5 -48 23 -63 41 -26
31 -27 37 -23 117 4 82 6 85 41 117 42 39 59 41 302 24z m1517 -69 c33 -29 33
-30 33 -125 0 -95 0 -96 -33 -128 l-32 -33 -170 0 -170 0 -32 33 c-33 32 -33
33 -33 128 0 95 0 96 33 125 l32 29 170 0 170 0 32 -29z m-1379 -387 l117 -7
0 -42 c0 -23 7 -82 15 -131 65 -378 324 -737 716 -994 l94 -62 -65 7 c-187 18
-404 82 -575 167 -330 166 -548 410 -626 703 -23 86 -31 265 -16 339 l8 39
107 -7 c59 -3 160 -9 225 -12z"/>
<path fill="#7b522d" d="M7120 5064 l0 -226 54 48 c30 27 121 110 202 184 81 74 167 154 193
177 l46 42 -247 1 -248 0 0 -226z"/>
</g>
</svg>
