<?xml version="1.0" standalone="no"?>
<!DOCTYPE svg PUBLIC "-//W3C//DTD SVG 20010904//EN"
 "http://www.w3.org/TR/2001/REC-SVG-20010904/DTD/svg10.dtd">
<svg version="1.0" xmlns="http://www.w3.org/2000/svg"
 width="768.000000pt" height="591.000000pt" viewBox="0 0 768.000000 591.000000"
 preserveAspectRatio="xMidYMid meet">

<g transform="translate(0.000000,591.000000) scale(0.100000,-0.100000)"
fill="#B3A492" stroke="none">
<path d="M3233 4475 c3 -11 9 -95 13 -187 3 -93 8 -168 11 -168 11 0 73 30 73
35 0 27 -45 217 -61 263 -21 56 -47 98 -36 57z"/>
<path d="M4269 4417 c-165 -46 -258 -193 -225 -352 15 -71 34 -111 70 -144 26
-25 58 -28 159 -16 15 2 27 -1 27 -6 0 -5 -21 -9 -47 -9 -85 0 -93 -6 -93 -60
l0 -47 -60 -7 -60 -7 0 -61 c0 -46 4 -64 18 -75 16 -14 16 -14 0 -9 -10 3 -18
1 -18 -4 0 -6 9 -10 20 -10 19 0 20 -7 20 -184 0 -102 3 -187 8 -190 4 -2 22
9 40 25 31 28 32 30 32 114 0 47 -3 85 -7 85 -3 0 -15 -7 -25 -17 -17 -15 -18
-14 -18 45 l0 62 81 0 c84 0 92 -7 38 -35 -29 -15 -29 -17 -29 -100 0 -47 4
-85 9 -85 4 0 28 15 52 33 24 18 60 43 80 55 27 17 39 33 52 76 10 29 24 59
32 66 12 10 13 16 3 28 -11 13 -10 15 4 9 12 -4 21 0 28 13 6 10 35 39 65 63
56 47 59 57 16 58 -14 0 -35 5 -46 10 -14 6 -4 7 33 4 29 -2 57 -7 62 -10 10
-6 50 15 50 27 0 4 -27 10 -60 14 l-60 7 0 46 c0 41 5 51 39 85 56 55 83 122
83 209 0 60 -5 80 -34 136 -64 127 -209 194 -339 158z m136 -59 c15 -23 15
-23 -37 -31 -99 -14 -180 -72 -214 -152 -23 -55 -26 -128 -9 -180 19 -56 14
-68 -11 -27 -9 17 -22 28 -28 26 -11 -4 -14 20 -17 131 -3 140 108 252 253
254 38 1 50 -3 63 -21z m-65 -275 c-1 -14 -30 -47 -36 -41 -3 3 3 16 13 27 19
23 23 25 23 14z m25 -103 c3 -5 1 -10 -4 -10 -6 0 -11 5 -11 10 0 6 2 10 4 10
3 0 8 -4 11 -10z m-38 -115 c8 -9 13 -19 10 -22 -6 -5 -37 21 -37 31 0 10 11
6 27 -9z m-59 -12 c-9 -10 -13 -24 -11 -30 3 -8 -3 -13 -14 -13 -10 0 -28 -3
-40 -6 -20 -6 -23 -3 -23 24 0 33 10 39 69 41 32 1 33 0 19 -16z m62 -114 c-7
-11 -14 -19 -16 -16 -7 7 7 37 17 37 6 0 5 -9 -1 -21z m-76 -4 c-47 -21 -58
-39 -35 -59 11 -10 24 -16 28 -13 5 3 10 -3 10 -14 1 -12 -2 -17 -10 -12 -6 3
-45 7 -86 7 l-76 1 0 45 0 45 50 6 c28 3 73 6 100 7 l50 0 -31 -13z m206 -49
c0 -3 -4 -8 -10 -11 -5 -3 -10 -1 -10 4 0 6 5 11 10 11 6 0 10 -2 10 -4z
m-150 -91 c-7 -9 -15 -13 -19 -10 -3 3 1 10 9 15 21 14 24 12 10 -5z m50 -55
c0 -5 -5 -10 -11 -10 -5 0 -7 5 -4 10 3 6 8 10 11 10 2 0 4 -4 4 -10z m5 -50
c3 -5 -1 -10 -10 -10 -9 0 -13 5 -10 10 3 6 8 10 10 10 2 0 7 -4 10 -10z"/>
<path d="M3828 4225 c-2 -2 -43 -6 -93 -9 -49 -4 -108 -11 -130 -17 -22 -6
-50 -13 -61 -15 -93 -17 -404 -151 -404 -174 0 -5 20 -22 45 -39 l45 -30 67
34 c191 95 326 130 547 140 55 3 100 6 101 7 1 2 5 24 8 51 6 44 5 47 -16 48
-12 1 -41 3 -64 4 -23 2 -43 1 -45 0z m-418 -145 c0 -5 -4 -10 -10 -10 -5 0
-10 5 -10 10 0 6 5 10 10 10 6 0 10 -4 10 -10z"/>
<path d="M2855 4094 c84 -79 259 -213 414 -318 109 -75 114 -78 160 -72 137
16 186 16 235 -1 54 -20 84 -53 95 -103 l6 -33 83 -4 c77 -3 84 -2 107 21 49
49 19 123 -66 166 -49 26 -82 25 -130 -1 -37 -21 -39 -22 -97 -5 -32 9 -83 16
-113 16 -30 1 -76 8 -104 18 -50 17 -204 113 -365 227 -86 60 -259 155 -283
155 -6 -1 20 -30 58 -66z m105 -30 c41 -25 137 -87 212 -138 100 -69 133 -97
125 -105 -6 -6 -15 -11 -20 -11 -16 0 -377 259 -422 303 -19 19 30 -4 105 -49z
m380 -263 c0 -14 -18 -23 -30 -16 -6 4 -8 11 -5 16 8 12 35 12 35 0z m574
-105 c20 -18 36 -41 36 -51 0 -61 -96 -76 -155 -24 -25 22 -35 39 -35 60 0 35
21 48 77 49 34 0 48 -6 77 -34z"/>
<path d="M3811 4008 c0 -7 6 -41 12 -75 19 -98 31 -87 51 45 9 58 -10 53 -21
-5 l-10 -48 -7 48 c-5 26 -12 47 -17 47 -5 0 -9 -6 -8 -12z"/>
<path d="M3917 4013 c-4 -3 -7 -40 -7 -82 0 -94 18 -84 21 11 2 67 -1 84 -14
71z"/>
<path d="M3700 4005 c0 -4 7 -20 16 -36 11 -22 13 -43 8 -76 -5 -33 -4 -44 5
-39 6 4 11 17 11 29 0 22 1 22 20 -3 23 -30 26 -11 5 31 -12 22 -14 38 -6 64
11 39 -4 50 -18 13 l-8 -23 -7 23 c-6 19 -26 32 -26 17z"/>
<path d="M3648 3994 c-5 -4 -8 -23 -8 -42 0 -29 -2 -33 -15 -22 -8 7 -15 18
-15 25 0 7 -7 18 -15 25 -18 15 -18 12 -1 -68 8 -35 19 -69 25 -75 14 -14 15
2 1 39 -14 36 -4 44 12 8 l13 -28 6 30 6 29 8 -32 c10 -44 29 -43 21 0 -12 63
-31 119 -38 111z"/>
<path d="M3532 3950 c3 -14 3 -36 -1 -50 -7 -24 -7 -24 -31 15 -13 21 -26 33
-28 27 -5 -17 38 -142 49 -142 12 0 11 5 -4 43 -13 31 -13 32 10 33 19 2 27
-5 35 -27 20 -59 25 -27 6 39 -21 67 -46 111 -36 62z"/>
<path d="M3314 3944 c-58 -24 -60 -39 -10 -73 24 -17 49 -31 54 -31 10 0 5 69
-7 101 -5 14 -10 14 -37 3z"/>
<path d="M4680 3928 c-7 -13 -21 -33 -32 -44 -19 -22 -19 -22 24 -57 l43 -36
55 19 c30 10 55 20 55 22 0 3 -67 64 -112 101 -21 18 -22 18 -33 -5z"/>
<path d="M2905 3817 c-89 -91 -191 -230 -241 -330 l-25 -49 23 8 c22 8 61 9
87 2 7 -2 32 28 55 66 62 101 158 215 231 277 35 30 64 56 64 59 0 8 -78 60
-91 60 -6 0 -52 -42 -103 -93z"/>
<path d="M3530 3850 c0 -5 5 -10 10 -10 6 0 10 5 10 10 0 6 -4 10 -10 10 -5 0
-10 -4 -10 -10z"/>
<path d="M4890 3753 c-70 -12 -189 -60 -254 -104 -76 -50 -150 -133 -141 -157
2 -7 1 -11 -4 -8 -14 9 -31 -51 -31 -108 1 -106 60 -176 155 -184 63 -5 108
15 130 58 l16 30 -38 0 c-72 0 -143 63 -143 126 0 111 124 224 296 269 162 42
301 -17 311 -132 7 -77 -45 -139 -137 -162 -99 -25 -93 -26 -85 15 12 69 47
146 82 185 l35 39 -29 0 c-23 0 -42 -13 -85 -58 -95 -100 -120 -162 -168 -430
l-22 -124 -27 7 c-14 4 -37 10 -51 13 -14 4 -69 7 -122 7 -82 0 -101 -3 -125
-21 -88 -65 -95 -162 -17 -223 90 -71 274 -32 378 79 l47 51 74 -16 c94 -19
138 -19 205 1 143 42 225 158 200 281 -13 60 -52 122 -97 156 l-31 23 34 32
c44 42 64 82 71 141 12 100 -60 185 -178 210 -48 11 -197 13 -249 4z m-385
-303 c3 -5 1 -10 -4 -10 -6 0 -11 5 -11 10 0 6 2 10 4 10 3 0 8 -4 11 -10z
m65 -10 c0 -5 -4 -10 -10 -10 -5 0 -10 5 -10 10 0 6 5 10 10 10 6 0 10 -4 10
-10z m-16 -116 c5 -14 4 -15 -9 -4 -17 14 -19 20 -6 20 5 0 12 -7 15 -16z
m586 -46 c115 -58 101 -214 -26 -285 -37 -20 -76 -26 -154 -24 -59 2 -63 10
-40 77 12 32 23 97 26 144 3 47 7 91 10 98 7 22 133 15 184 -10z m-440 -309
c27 -6 50 -15 50 -19 0 -5 -17 -27 -37 -48 -48 -50 -108 -71 -152 -52 -55 22
-54 91 2 115 39 17 71 18 137 4z"/>
<path d="M3280 3702 c0 -46 2 -50 41 -75 22 -15 46 -24 51 -20 6 3 8 1 5 -4
-4 -6 -1 -23 7 -38 14 -26 13 -28 -37 -69 -60 -49 -77 -76 -77 -128 0 -55 36
-143 71 -173 39 -32 105 -35 137 -5 28 27 28 44 -4 105 -21 39 -28 69 -34 150
-8 106 -14 126 -62 187 -15 20 -26 42 -23 50 2 7 -13 25 -35 40 l-40 28 0 -48z
m119 -284 c-1 -62 13 -117 33 -129 5 -3 10 -21 11 -39 3 -43 -20 -58 -62 -40
-62 25 -99 131 -72 203 13 33 50 67 73 67 16 0 18 -8 17 -62z"/>
<path d="M3052 3678 c-20 -20 -14 -31 38 -83 l50 -49 22 22 22 22 -49 50 c-52
52 -63 58 -83 38z m70 -52 c21 -24 34 -46 31 -50 -7 -7 -93 73 -93 86 0 20 28
4 62 -36z"/>
<path d="M3216 3651 c-4 -5 -2 -12 3 -15 5 -4 12 -2 15 3 4 5 2 12 -3 15 -5 4
-12 2 -15 -3z"/>
<path d="M2982 3597 c-26 -28 -28 -42 -5 -33 10 4 33 -8 65 -35 27 -23 52 -38
56 -34 4 3 -17 27 -45 51 -33 28 -50 50 -46 59 8 21 0 18 -25 -8z"/>
<path d="M5410 3600 c-15 -15 -20 -33 -20 -79 0 -45 -5 -66 -25 -95 l-24 -36
25 0 c65 0 149 78 160 151 11 66 -69 106 -116 59z"/>
<path d="M2910 3500 c-8 -16 -6 -22 13 -35 14 -9 37 -15 53 -13 31 2 54 -7 54
-22 0 -4 -10 -6 -22 -3 -22 5 -22 5 -6 -12 14 -15 20 -16 32 -5 36 29 8 61
-55 64 -24 0 -44 6 -47 14 -2 6 4 12 13 12 9 0 13 5 10 10 -10 16 -34 11 -45
-10z"/>
<path d="M3804 3484 c-35 -18 -74 -63 -74 -86 0 -10 -4 -18 -9 -18 -10 0 -45
-89 -43 -112 0 -10 -3 -18 -7 -18 -18 0 -51 -207 -52 -322 l-1 -97 -41 -47
c-82 -93 -152 -116 -200 -66 -50 52 -45 155 11 207 33 31 44 32 37 2 -8 -29
20 -64 57 -73 37 -8 88 41 88 85 0 38 -18 78 -39 86 -94 38 -209 -17 -268
-129 -10 -19 -18 -59 -19 -104 -3 -90 -7 -102 -43 -136 -19 -18 -37 -26 -54
-24 l-25 3 30 122 c32 127 32 193 3 193 -8 0 -14 6 -12 13 1 7 -11 13 -30 15
-42 4 -101 -48 -139 -125 l-29 -57 -3 50 c-3 64 -19 94 -49 94 -60 0 -93 -51
-93 -143 0 -46 -6 -63 -37 -111 -62 -93 -89 -71 -100 79 -5 68 -2 92 20 160
72 230 81 446 19 445 -39 -1 -98 -73 -134 -164 -35 -90 -58 -217 -65 -365 -6
-140 -7 -145 -38 -190 -17 -25 -31 -52 -29 -59 1 -7 0 -8 -2 -3 -3 5 -20 7
-38 4 -27 -4 -37 0 -54 22 -62 78 -52 334 21 540 13 38 17 40 63 47 76 11 105
57 63 99 -28 28 -85 21 -138 -15 -28 -20 -49 -26 -89 -26 -155 0 -316 -83
-375 -194 -29 -55 -30 -157 -2 -203 41 -70 125 -79 190 -21 32 27 35 35 35 84
0 30 -2 54 -5 54 -3 0 -14 -9 -25 -20 -26 -26 -44 -25 -70 2 -14 15 -20 35
-20 66 0 40 5 50 48 92 34 35 62 52 101 64 61 18 119 20 141 6 13 -8 13 -10
-1 -10 -17 0 -49 -69 -49 -106 0 -11 -4 -24 -10 -30 -23 -23 -46 -204 -44
-354 1 -81 7 -118 23 -162 39 -101 114 -143 190 -104 30 16 102 91 121 126 12
23 13 23 32 -16 49 -101 133 -91 208 26 18 27 33 50 34 50 1 0 2 -19 2 -41 1
-76 62 -97 107 -38 10 14 29 65 42 114 27 99 74 202 90 197 13 -3 12 -51 -5
-142 -15 -88 -5 -125 43 -148 45 -22 85 -6 148 58 51 52 57 56 67 39 36 -57
131 -69 206 -25 24 14 67 51 94 82 l51 57 14 -35 c41 -98 141 -87 214 23 l26
40 18 -27 c26 -40 57 -54 118 -52 44 1 64 8 107 37 61 42 100 86 109 124 9 36
1 34 -35 -7 -36 -40 -86 -66 -130 -66 -25 0 -41 9 -67 37 l-35 37 65 21 c116
37 174 101 164 179 -7 51 -36 76 -88 76 -113 0 -207 -98 -230 -239 -11 -71
-54 -135 -92 -139 -23 -3 -30 2 -42 32 -27 65 -20 105 45 231 33 64 69 146 80
181 23 76 35 194 19 194 -6 0 -8 4 -4 10 11 17 -6 57 -30 68 -17 8 -30 7 -51
-4z m3 -72 c15 -9 34 -58 26 -66 -9 -9 -23 -7 -21 2 3 12 -14 57 -26 64 -6 4
-7 8 -1 8 6 0 15 -4 22 -8z m63 -28 c0 -14 -4 -23 -10 -19 -5 3 -10 15 -10 26
0 10 5 19 10 19 6 0 10 -12 10 -26z m-27 -86 c4 -12 3 -27 -2 -32 -7 -11 -40
-85 -61 -142 -20 -52 -20 -16 0 70 28 121 50 156 63 104z m-1181 -90 c-7 -7
-12 -8 -12 -2 0 6 3 14 7 17 3 4 9 5 12 2 2 -3 -1 -11 -7 -17z m1430 -164 c10
-21 9 -31 -2 -51 -20 -35 -58 -61 -97 -69 -33 -6 -33 -6 -27 27 19 99 97 157
126 93z m-1809 -79 c-3 -9 -8 -14 -10 -11 -3 3 -2 9 2 15 9 16 15 13 8 -4z
m862 -34 c3 -5 1 -12 -4 -15 -5 -3 -11 1 -15 9 -6 16 9 21 19 6z m-505 -171
c0 -5 -4 -10 -10 -10 -5 0 -10 5 -10 10 0 6 5 10 10 10 6 0 10 -4 10 -10z
m-365 -40 c3 -5 1 -10 -4 -10 -6 0 -11 5 -11 10 0 6 2 10 4 10 3 0 8 -4 11
-10z m385 -50 c0 -5 -5 -10 -11 -10 -5 0 -7 5 -4 10 3 6 8 10 11 10 2 0 4 -4
4 -10z m-365 -60 c3 -5 1 -10 -4 -10 -6 0 -11 5 -11 10 0 6 2 10 4 10 3 0 8
-4 11 -10z"/>
<path d="M2862 3419 c-7 -12 -12 -22 -10 -23 2 -2 32 -19 68 -39 65 -35 66
-35 79 -15 14 23 7 38 -11 20 -15 -15 -52 4 -44 24 6 16 -10 19 -19 4 -11 -18
-47 9 -40 31 8 25 -7 24 -23 -2z"/>
<path d="M5565 3411 c-67 -28 -80 -124 -25 -194 24 -30 25 -37 6 -37 -8 0 -31
-15 -50 -34 -30 -27 -36 -40 -36 -72 1 -63 37 -94 110 -94 87 0 150 51 150
121 0 50 17 51 92 5 52 -31 57 -32 61 -15 9 32 -78 86 -163 103 -23 4 -55 25
-92 60 -59 56 -68 75 -44 95 27 22 69 -17 46 -44 -14 -17 -2 -25 36 -25 27 0
35 5 40 25 20 80 -52 138 -131 106z m45 -296 c18 -47 -17 -80 -51 -49 -24 22
-24 29 1 54 26 26 39 25 50 -5z"/>
<path d="M4309 3239 l-66 -50 24 -46 c13 -26 23 -60 23 -77 1 -26 3 -29 13
-16 10 12 100 84 141 112 7 4 2 16 -11 30 -12 13 -29 40 -38 61 -8 20 -16 37
-18 37 -1 0 -32 -23 -68 -51z"/>
<path d="M5133 2757 l-63 -10 0 -179 0 -179 23 3 c20 3 22 9 25 68 3 67 11 80
49 80 42 0 53 25 53 119 0 59 -4 92 -12 98 -8 5 -38 5 -75 0z m37 -106 c0 -62
-2 -69 -22 -74 -12 -4 -23 -5 -24 -4 -2 2 -6 125 -5 140 1 4 12 7 26 7 24 0
25 -2 25 -69z"/>
<path d="M4880 2711 c-20 -4 -41 -11 -48 -15 -16 -10 -16 -148 1 -165 10 -11
9 -12 -1 -7 -10 6 -12 -11 -10 -81 l3 -88 64 3 c35 1 70 7 78 13 11 9 13 47
11 178 l-3 166 -30 2 c-16 0 -46 -2 -65 -6z m57 -172 c3 -135 3 -137 -19 -143
-48 -13 -48 -14 -48 133 0 124 2 140 18 144 45 12 46 9 49 -134z"/>
<path d="M4688 2603 l-3 -78 -32 -3 -33 -3 0 74 c0 70 -1 75 -20 70 -19 -5
-20 -14 -20 -185 l0 -179 23 3 c21 3 22 8 22 83 0 83 5 95 43 95 21 0 22 -4
22 -81 0 -78 1 -80 23 -77 19 3 22 9 23 53 1 28 -2 60 -7 72 -4 12 -5 24 -1
27 4 2 6 49 4 105 -3 91 -5 101 -22 101 -17 0 -20 -9 -22 -77z m22 -93 c0 -5
-5 -10 -11 -10 -5 0 -7 5 -4 10 3 6 8 10 11 10 2 0 4 -4 4 -10z"/>
<path d="M4415 2633 c-46 -7 -55 -20 -55 -80 0 -50 4 -60 39 -102 30 -36 40
-57 42 -91 3 -40 1 -45 -19 -48 -19 -3 -22 1 -22 27 0 17 -2 31 -4 31 -2 0
-12 3 -21 6 -14 6 -16 -1 -13 -52 l3 -59 45 3 c73 6 80 14 80 86 0 61 -2 67
-45 119 -50 62 -61 111 -25 120 15 4 20 0 20 -14 0 -16 26 -39 45 -39 3 0 5
21 3 48 -3 51 -9 54 -73 45z"/>
<path d="M3995 2556 l-60 -11 -1 -158 c-1 -190 1 -206 27 -200 16 5 19 15 19
74 0 92 20 93 45 4 16 -59 19 -65 39 -59 30 9 29 7 10 69 -15 45 -16 60 -6 75
17 27 16 194 0 207 -8 6 -35 6 -73 -1z m33 -108 c-3 -66 -5 -73 -25 -76 -20
-3 -21 2 -25 65 -3 69 2 83 35 83 16 0 18 -8 15 -72z"/>
<path d="M3817 2523 c-10 -3 -14 -9 -10 -16 4 -8 1 -7 -9 1 -10 8 -26 10 -42
6 l-26 -6 0 -180 0 -180 46 7 c26 3 53 9 61 12 15 6 13 39 -3 36 -62 -10 -59
-13 -62 53 l-3 62 36 6 c27 5 35 12 35 28 0 18 -4 19 -35 14 l-35 -7 0 48 c0
56 10 99 19 84 11 -17 51 -1 51 20 0 11 -1 18 -2 18 -2 -1 -11 -3 -21 -6z"/>
<path d="M3547 2478 l-57 -10 1 -178 c0 -98 2 -180 5 -183 6 -5 116 17 132 27
20 12 15 146 -5 168 -13 15 -14 21 -5 27 16 9 13 153 -3 156 -5 1 -36 -2 -68
-7z m41 -90 c-3 -46 -6 -53 -25 -56 -22 -3 -23 0 -23 52 0 53 1 56 26 56 24 0
25 -2 22 -52z m2 -168 c0 -33 -4 -60 -9 -60 -5 0 -16 -3 -25 -6 -14 -5 -16 4
-16 60 0 64 1 66 25 66 24 0 25 -3 25 -60z"/>
<path d="M3305 2433 c-11 -2 -29 -6 -40 -8 -19 -4 -20 -11 -17 -182 2 -97 4
-179 6 -180 2 -2 11 -1 20 3 13 5 16 20 16 75 0 54 3 69 15 69 13 0 20 -17 41
-102 6 -29 19 -34 42 -19 11 7 11 19 -4 72 -13 46 -15 64 -6 67 8 2 12 36 12
108 l0 104 -32 -1 c-18 -1 -42 -3 -53 -6z m45 -54 c0 -11 5 -17 10 -14 6 3 10
1 10 -4 0 -6 -4 -11 -9 -11 -6 0 -11 -21 -13 -47 -3 -44 -5 -48 -30 -51 l-28
-3 0 69 c0 76 3 82 37 82 17 0 23 -6 23 -21z"/>
<path d="M3047 2383 c-4 -7 -67 -343 -67 -359 0 -3 10 -4 23 -2 17 2 23 11 27
38 4 31 9 35 37 38 28 3 32 0 38 -27 4 -21 13 -31 25 -31 10 0 21 3 23 8 2 4
-10 81 -28 172 -28 148 -33 165 -52 168 -12 2 -23 0 -26 -5z m38 -190 c7 -52
7 -53 -20 -53 -20 0 -25 4 -22 18 3 9 8 39 12 67 8 58 19 46 30 -32z"/>
<path d="M2783 2339 l-41 -10 -2 -172 c0 -95 2 -176 5 -179 6 -6 115 15 133
26 8 4 12 36 12 81 0 59 -3 76 -17 84 -14 8 -15 12 -4 25 7 9 13 35 13 58 -1
101 0 98 -29 97 -16 -1 -47 -5 -70 -10z m57 -79 c0 -38 -4 -52 -19 -60 -30
-15 -31 -14 -31 44 0 54 3 59 43 65 4 0 7 -21 7 -49z m-5 -175 c0 -55 -2 -60
-22 -63 -22 -3 -23 0 -23 63 0 63 1 66 23 63 20 -3 22 -8 22 -63z"/>
<path d="M5038 2296 l-57 -11 -62 -93 c-33 -52 -90 -124 -125 -161 -63 -68
-64 -68 -70 -139 -5 -53 -4 -72 5 -72 24 0 198 188 260 279 65 98 127 212 114
210 -5 -1 -34 -7 -65 -13z"/>
<path d="M4507 2203 l-77 -15 -44 -61 c-24 -34 -61 -92 -82 -129 l-39 -68 -64
0 c-61 0 -63 1 -56 23 5 12 10 60 12 106 5 84 5 84 -19 78 -13 -4 -31 -7 -40
-7 -16 0 -18 -13 -18 -130 0 -123 -1 -130 -20 -130 -18 0 -20 -7 -20 -79 l0
-78 38 -7 c20 -3 55 -6 78 -6 80 0 133 -11 127 -27 -3 -8 -8 -10 -12 -5 -8 13
-201 20 -201 7 0 -26 65 -119 102 -145 108 -79 241 -74 349 11 39 30 89 112
89 144 0 9 7 18 15 21 12 5 15 24 15 85 0 72 -2 79 -20 79 -19 0 -20 7 -20
175 0 96 -3 175 -7 174 -5 -1 -43 -8 -86 -16z m63 -173 c0 -82 -3 -100 -15
-100 -12 0 -15 16 -15 81 0 70 10 119 25 119 3 0 5 -45 5 -100z m-60 -45 l0
-55 -35 0 c-19 0 -35 4 -35 9 0 14 54 100 63 101 4 0 7 -25 7 -55z m-235 -156
c-3 -4 -19 -10 -37 -13 -18 -4 -44 -15 -58 -26 -20 -15 -23 -21 -12 -31 21
-22 14 -25 -35 -19 -47 5 -48 5 -51 44 -2 21 1 42 6 45 15 9 192 9 187 0z
m323 -14 c3 -16 1 -18 -9 -7 -7 6 -32 12 -55 12 -24 0 -46 5 -49 11 -5 7 13 9
51 7 50 -3 59 -6 62 -23z m-351 -39 c-11 -8 -15 -20 -11 -32 4 -14 1 -13 -15
6 -28 34 -26 40 12 40 29 -1 30 -2 14 -14z m-87 -124 c0 -5 9 -20 20 -33 47
-56 75 -79 114 -93 29 -10 35 -15 18 -15 -50 -2 -126 44 -169 101 -28 39 -29
48 -3 48 11 0 20 -4 20 -8z m330 -76 c0 -3 -4 -8 -10 -11 -5 -3 -10 -1 -10 4
0 6 5 11 10 11 6 0 10 -2 10 -4z"/>
<path d="M4223 2152 c-19 -3 -23 -10 -23 -38 0 -19 2 -34 4 -34 6 0 49 71 45
73 -2 2 -14 1 -26 -1z"/>
<path d="M3855 2079 c-22 -6 -155 -30 -295 -55 -140 -24 -315 -55 -387 -68
-112 -20 -135 -21 -144 -10 -26 32 -77 7 -63 -30 7 -19 -26 -36 -70 -36 -22 0
-45 9 -64 25 -36 30 -42 31 -42 5 0 -43 88 -73 170 -58 l51 9 62 -56 c196
-179 505 -328 755 -366 81 -12 82 -12 107 11 31 29 34 88 6 114 -11 10 -76 30
-150 46 -153 34 -311 85 -431 141 -92 43 -250 131 -250 139 0 3 44 13 98 22
90 15 98 15 109 0 43 -59 10 -58 328 -12 159 23 293 44 298 47 10 6 -1 100
-15 126 -10 19 -15 19 -73 6z m70 -75 c3 -20 5 -38 3 -40 -9 -9 -563 -83 -570
-76 -14 14 -13 55 1 60 8 3 11 0 7 -7 -4 -6 -3 -11 1 -11 22 0 293 61 318 71
14 6 184 37 206 38 23 1 28 -4 34 -35z m-895 -104 c0 -5 -4 -10 -10 -10 -5 0
-10 5 -10 10 0 6 5 10 10 10 6 0 10 -4 10 -10z m290 -147 c116 -56 228 -98
373 -139 87 -24 63 -26 -34 -3 -148 35 -326 108 -434 178 -62 40 -59 39 95
-36z m588 -241 c4 -28 -24 -40 -45 -19 -14 13 -14 19 -3 32 18 22 44 15 48
-13z"/>
</g>
</svg>
