<?xml version="1.0" standalone="no"?>
<!DOCTYPE svg PUBLIC "-//W3C//DTD SVG 20010904//EN"
 "http://www.w3.org/TR/2001/REC-SVG-20010904/DTD/svg10.dtd">
<svg version="1.0" xmlns="http://www.w3.org/2000/svg"
 width="200.000000pt" height="200.000000pt" viewBox="0 0 200.000000 200.000000"
 preserveAspectRatio="xMidYMid meet">

<g transform="translate(0.000000,200.000000) scale(0.100000,-0.100000)"
fill="#748E63" stroke="none">
<path d="M1112 1729 c-17 -46 -61 -169 -97 -273 -36 -104 -67 -191 -70 -194
-2 -3 -9 6 -14 19 -25 65 -186 438 -202 469 -10 19 -18 29 -19 22 0 -18 94
-393 141 -557 l40 -141 -86 -214 c-90 -224 -114 -264 -169 -275 -58 -12 -106
-53 -133 -112 -77 -167 67 -304 197 -187 55 50 74 106 66 193 -5 49 -3 84 7
118 19 63 83 190 140 276 l45 68 76 -113 c108 -163 139 -239 142 -356 3 -124
31 -165 120 -179 28 -4 54 -20 90 -54 52 -48 91 -66 120 -55 22 8 7 26 -22 26
-34 0 -84 51 -84 85 0 14 9 44 21 67 42 82 4 161 -92 193 -32 11 -60 30 -83
56 -39 46 -136 233 -191 366 l-37 91 36 179 c44 222 98 542 93 556 -2 6 -17
-28 -35 -74z m-134 -666 c3 -19 -1 -23 -22 -23 -21 0 -26 5 -26 26 0 21 4 25
23 22 14 -2 23 -11 25 -25z m-293 -515 c54 -25 71 -108 36 -183 -44 -96 -148
-124 -192 -52 -45 74 0 195 86 233 37 17 38 17 70 2z m693 -51 c13 -14 26 -41
29 -63 4 -33 1 -45 -22 -72 -51 -61 -141 -48 -171 25 -43 101 86 188 164 110z"/>
</g>
</svg>
